<?xml version="1.0" encoding="utf-8"?>
<svg xmlns="http://www.w3.org/2000/svg" width="150" height="365" viewBox="0 0 179 436" fill="none" preserveAspectRatio="xMidYMid slice">
  <path d="M25 22.5L155 155.5L28.5 286L155 416" stroke="url(#paint0_linear_165_81)" stroke-width="2"/>
  <circle cx="24.5" cy="24.5" r="24.5" fill="#FF0000"/>
  <path d="M26.776 29.52C26.776 30.456 27.184 30.864 28.12 30.864V31.248L22 31.632V31.248C22.936 31.248 23.32 30.84 23.32 29.904V18.264C23.32 17.328 22.936 16.92 22 16.92V16.536L26.392 15H26.776V29.52Z" fill="white"/>
  <circle cx="154.5" cy="153.5" r="24.5" fill="#FF0000"/>
  <path d="M158.808 157.472H159.192L160.728 161.864V162.248H150C150 156.92 156.888 154.016 156.888 149.744C156.888 148.304 156.144 146.768 154.776 146.768C152.424 146.768 151.536 151.784 151.536 151.784H151.152L150.384 148.328C150.384 148.328 151.92 146 155.352 146C158.112 146 160.32 147.656 160.32 150.32C160.32 155.264 152.088 157.76 150.912 161.384C152.976 161.048 158.808 159.92 158.808 157.472Z" fill="white"/>
  <circle cx="24.5" cy="282.5" r="24.5" fill="#990000"/>
  <path d="M25.712 280.616C28.688 280.952 30.728 282.92 30.728 285.92C30.728 289.208 28.136 291.272 25.16 291.272C21.512 291.272 20 288.944 20 288.944L20.768 285.488H21.128C21.128 285.488 22.04 290.504 24.776 290.504C26.36 290.504 27.272 288.44 27.272 285.92C27.272 283.376 26.36 281.336 24.776 281.336H24.152L26.504 278.456H23.624C22.688 278.456 22.28 278.864 22.28 279.8H21.896L20.384 275.384V275H30.344L25.712 280.616Z" fill="white"/>
  <circle cx="154.5" cy="411.5" r="24.5" fill="#990000"/>
  <path d="M159.96 419.096C159.96 419.528 160.32 419.864 160.728 419.864V420.248L155.76 420.632V420.248C156.168 420.248 156.528 419.912 156.528 419.48V416.432H150L151.08 406.688C151.128 406.256 150.816 405.92 150.384 405.92V405.536L154.464 404H154.848L153.552 415.688H156.528V406.688C156.528 406.256 156.168 405.92 155.76 405.92V405.536L159.576 404H159.96V415.688H160.728V416.432H159.96V419.096Z" fill="white"/>
  <defs>
    <linearGradient id="paint0_linear_165_81" x1="90" y1="22.5" x2="90" y2="416" gradientUnits="userSpaceOnUse">
      <stop stop-color="#FF0000"/>
      <stop offset="0.572115" stop-color="#FF0000"/>
      <stop offset="0.572215" stop-color="#990000"/>
    </linearGradient>
  </defs>
</svg>
