<svg width="42" height="42" viewBox="0 0 42 42" fill="none" xmlns="http://www.w3.org/2000/svg">
<path fill-rule="evenodd" clip-rule="evenodd" d="M6.5625 5.9063H19.0312C19.3937 5.9063 19.6875 6.20009 19.6875 6.56255V19.0313C19.6875 19.3938 19.3937 19.6875 19.0312 19.6875H6.5625C6.20004 19.6875 5.90625 19.3938 5.90625 19.0313V6.56255C5.90625 6.20009 6.20004 5.9063 6.5625 5.9063ZM29.7082 4.86725L37.1328 12.2919C37.3891 12.5482 37.3891 12.9636 37.1328 13.22L29.7081 20.6446C29.4519 20.9008 29.0364 20.9008 28.7801 20.6446L21.3555 13.2199C21.0992 12.9636 21.0992 12.5482 21.3555 12.2919L28.7801 4.86725C29.0364 4.61098 29.4519 4.61098 29.7082 4.86725ZM6.5625 22.3125H19.0312C19.3937 22.3125 19.6875 22.6063 19.6875 22.9688V35.4375C19.6875 35.8 19.3937 36.0938 19.0312 36.0938H6.5625C6.20004 36.0938 5.90625 35.8 5.90625 35.4375V22.9688C5.90625 22.6063 6.20004 22.3125 6.5625 22.3125ZM22.9688 22.3125H35.4375C35.8 22.3125 36.0938 22.6063 36.0938 22.9688V35.4375C36.0938 35.8 35.8 36.0938 35.4375 36.0938H22.9688C22.6063 36.0938 22.3125 35.8 22.3125 35.4375V22.9688C22.3125 22.6063 22.6063 22.3125 22.9688 22.3125Z" fill="#FF0000"/>
</svg>
