<svg width="42" height="42" viewBox="0 0 42 42" fill="none" xmlns="http://www.w3.org/2000/svg">
<path d="M15.75 14H26.25V10.5H15.75V14ZM3.5 35V26.25H10.5V28H14V26.25H28V28H31.5V26.25H38.5V35H3.5ZM3.5 24.5V17.5C3.5 16.5375 3.843 15.7138 4.529 15.029C5.215 14.3442 6.03867 14.0012 7 14H12.25V10.5C12.25 9.5375 12.593 8.71383 13.279 8.029C13.965 7.34417 14.7887 7.00117 15.75 7H26.25C27.2125 7 28.0368 7.343 28.7227 8.029C29.4088 8.715 29.7512 9.53867 29.75 10.5V14H35C35.9625 14 36.7868 14.343 37.4728 15.029C38.1587 15.715 38.5012 16.5387 38.5 17.5V24.5H31.5V21H28V24.5H14V21H10.5V24.5H3.5Z" fill="#FF0000"/>
</svg>
