<svg width="31" height="35" viewBox="0 0 31 35" fill="none" xmlns="http://www.w3.org/2000/svg">
<path d="M3.1 22.5993V1.7384C3.1 1.27735 3.2633 0.835181 3.55398 0.509167C3.84467 0.183153 4.23891 0 4.65 0H29.45C29.8611 0 30.2553 0.183153 30.546 0.509167C30.8367 0.835181 31 1.27735 31 1.7384V29.5529C31 30.936 30.5101 32.2625 29.638 33.2406C28.766 34.2186 27.5833 34.7681 26.35 34.7681H4.65C3.41674 34.7681 2.234 34.2186 1.36195 33.2406C0.489909 32.2625 0 30.936 0 29.5529V26.0761H24.8V29.5529C24.8 30.0139 24.9633 30.4561 25.254 30.7821C25.5447 31.1081 25.9389 31.2913 26.35 31.2913C26.7611 31.2913 27.1553 31.1081 27.446 30.7821C27.7367 30.4561 27.9 30.0139 27.9 29.5529V22.5993H3.1Z" fill="#FF0000"/>
</svg>
