<svg width="46" height="46" viewBox="0 0 46 46" fill="none" xmlns="http://www.w3.org/2000/svg">
<path d="M5.74996 25.875L4.31246 23H14.375L13.225 20.125H3.83329L2.39579 17.25H17.3458L16.1958 14.375H2.12746L0.479126 11.5H7.66663C7.66663 10.4833 8.07049 9.50827 8.78938 8.78938C9.50827 8.07049 10.4833 7.66663 11.5 7.66663H34.5V15.3333H40.25L46 23V32.5833H42.1666C42.1666 34.1083 41.5608 35.5708 40.4825 36.6492C39.4042 37.7275 37.9416 38.3333 36.4166 38.3333C34.8916 38.3333 33.4291 37.7275 32.3508 36.6492C31.2724 35.5708 30.6666 34.1083 30.6666 32.5833H23C23 34.1083 22.3942 35.5708 21.3158 36.6492C20.2375 37.7275 18.775 38.3333 17.25 38.3333C15.725 38.3333 14.2624 37.7275 13.1841 36.6492C12.1058 35.5708 11.5 34.1083 11.5 32.5833H7.66663V25.875H5.74996ZM36.4166 35.4583C37.1791 35.4583 37.9104 35.1554 38.4496 34.6162C38.9887 34.0771 39.2916 33.3458 39.2916 32.5833C39.2916 31.8208 38.9887 31.0895 38.4496 30.5504C37.9104 30.0112 37.1791 29.7083 36.4166 29.7083C35.6541 29.7083 34.9229 30.0112 34.3837 30.5504C33.8445 31.0895 33.5416 31.8208 33.5416 32.5833C33.5416 33.3458 33.8445 34.0771 34.3837 34.6162C34.9229 35.1554 35.6541 35.4583 36.4166 35.4583ZM39.2916 18.2083H34.5V23H43.0483L39.2916 18.2083ZM17.25 35.4583C18.0125 35.4583 18.7437 35.1554 19.2829 34.6162C19.8221 34.0771 20.125 33.3458 20.125 32.5833C20.125 31.8208 19.8221 31.0895 19.2829 30.5504C18.7437 30.0112 18.0125 29.7083 17.25 29.7083C16.4875 29.7083 15.7562 30.0112 15.217 30.5504C14.6779 31.0895 14.375 31.8208 14.375 32.5833C14.375 33.3458 14.6779 34.0771 15.217 34.6162C15.7562 35.1554 16.4875 35.4583 17.25 35.4583Z" fill="#FF0000"/>
</svg>
