<svg width="42" height="42" viewBox="0 0 42 42" fill="none" xmlns="http://www.w3.org/2000/svg">
<path d="M12.4688 21C15.7307 21 18.375 18.3557 18.375 15.0938C18.375 11.8318 15.7307 9.1875 12.4688 9.1875C9.20682 9.1875 6.5625 11.8318 6.5625 15.0938C6.5625 18.3557 9.20682 21 12.4688 21Z" fill="#FF0000"/>
<path d="M19.1953 24.2812C16.8853 23.1082 14.3358 22.6406 12.4688 22.6406C8.8118 22.6406 1.3125 24.8834 1.3125 29.3672V32.8125H13.6172V31.4943C13.6172 29.9357 14.2734 28.373 15.4219 27.0703C16.3382 26.0302 17.6211 25.0646 19.1953 24.2812Z" fill="#FF0000"/>
<path d="M27.8906 23.625C23.6193 23.625 15.0938 26.2631 15.0938 31.5V35.4375H40.6875V31.5C40.6875 26.2631 32.162 23.625 27.8906 23.625Z" fill="#FF0000"/>
<path d="M27.8906 21C31.8774 21 35.1094 17.7681 35.1094 13.7812C35.1094 9.79444 31.8774 6.5625 27.8906 6.5625C23.9038 6.5625 20.6719 9.79444 20.6719 13.7812C20.6719 17.7681 23.9038 21 27.8906 21Z" fill="#FF0000"/>
</svg>
